<svg xmlns="http://www.w3.org/2000/svg" viewBox="0 0 1920 911" preserveAspectRatio="xMidYMid" width="1920" height="911" xmlns:xlink="http://www.w3.org/1999/xlink" style="shape-rendering:auto;display:block;background-position-x:0%;background-position-y:0%;background-size:auto;background-origin:padding-box;background-clip:border-box;background:scroll rgb(255, 255, 255) none  repeat;width:1920px;height:911px;;animation:none"><g><defs><linearGradient gradientUnits="userSpaceOnUse" y2="0" y1="0" x2="1920" x1="935" id="ldbk-photon-kqudcw0ts5c-lg"><stop offset="0" stop-color="#1d3f72"></stop>

    
<stop offset="1" stop-color="#34ffef"></stop></linearGradient>

  
<mask id="ldbk-photon-kqudcw0ts5c-mask"><g><path fill="#fff" d="M2220 -0.5 L922.4505306995266 -0.5 A15.5 15.5 0 0 1 922.4505306995266 31.5 L2220 31.5" transform="matrix(1,0,0,1,34.552223205566406,0)" style="fill:rgb(255, 255, 255);transform:matrix(1, 0, 0, 1, 34.5522, 0);;animation:none"></path>
<path fill="#000" d="M1968.0439104608297 -0.5 L1985.0878209216594 -0.5 A15.5 15.5 0 0 1 1985.0878209216594 31.5 L1968.0439104608297 31.5 A15.5 15.5 0 0 1 1968.0439104608297 -0.5" transform="matrix(1,0,0,1,0,0)" opacity="1" style="fill:rgb(0, 0, 0);transform:matrix(1, 0, 0, 1, 0, 0);;animation:none"></path>
<path fill="#fff" d="M2220 30.5 L882.5541859243222 30.5 A15.5 15.5 0 0 0 882.5541859243222 62.5 L2220 62.5" transform="matrix(1,0,0,1,-13.946685791015625,0)" style="fill:rgb(255, 255, 255);transform:matrix(1, 0, 0, 1, -13.9467, 0);;animation:none"></path>
<path fill="#fff" d="M1024.3903893224076 30.5 L1040.5671386786692 30.5 A15.5 15.5 0 0 1 1040.5671386786692 62.5 L1024.3903893224076 62.5 A15.5 15.5 0 0 1 1024.3903893224076 30.5" transform="matrix(1,0,0,1,0,0)" opacity="1" style="fill:rgb(255, 255, 255);transform:matrix(1, 0, 0, 1, 0, 0);;animation:none"></path>
<path fill="#fff" d="M2220 61.5 L943.9861397293429 61.5 A15.5 15.5 0 0 1 943.9861397293429 93.5 L2220 93.5" transform="matrix(1,0,0,1,2.0467357635498047,0)" style="fill:rgb(255, 255, 255);transform:matrix(1, 0, 0, 1, 2.04674, 0);;animation:none"></path>
<path fill="#000" d="M1972.2650887731327 61.5 L1993.5301775462653 61.5 A15.5 15.5 0 0 1 1993.5301775462653 93.5 L1972.2650887731327 93.5 A15.5 15.5 0 0 1 1972.2650887731327 61.5" transform="matrix(1,0,0,1,-306.1266784667969,0)" opacity="1" style="fill:rgb(0, 0, 0);transform:matrix(1, 0, 0, 1, -306.127, 0);;animation:none"></path>
<path fill="#fff" d="M2220 92.5 L915.8617529279913 92.5 A15.5 15.5 0 0 0 915.8617529279913 124.5 L2220 124.5" transform="matrix(1,0,0,1,-2.3015363216400146,0)" style="fill:rgb(255, 255, 255);transform:matrix(1, 0, 0, 1, -2.30154, 0);;animation:none"></path>
<path fill="#fff" d="M992.1347994256657 92.5 L1022.1065034468219 92.5 A15.5 15.5 0 0 1 1022.1065034468219 124.5 L992.1347994256657 124.5 A15.5 15.5 0 0 1 992.1347994256657 92.5" transform="matrix(1,0,0,1,0,0)" opacity="0.571429" style="fill:rgb(255, 255, 255);transform:matrix(1, 0, 0, 1, 0, 0);opacity:0.571429;;animation:none"></path>
<path fill="#fff" d="M2220 123.5 L923.5019444480803 123.5 A15.5 15.5 0 0 1 923.5019444480803 155.5 L2220 155.5" transform="matrix(1,0,0,1,30.857166290283203,0)" style="fill:rgb(255, 255, 255);transform:matrix(1, 0, 0, 1, 30.8572, 0);;animation:none"></path>
<path fill="#000" d="M1975.4544127427832 123.5 L1999.9088254855665 123.5 A15.5 15.5 0 0 1 1999.9088254855665 155.5 L1975.4544127427832 155.5 A15.5 15.5 0 0 1 1975.4544127427832 123.5" transform="matrix(1,0,0,1,-469.79638671875,0)" opacity="1" style="fill:rgb(0, 0, 0);transform:matrix(1, 0, 0, 1, -469.796, 0);;animation:none"></path>
<path fill="#fff" d="M2220 154.5 L880.7022978202324 154.5 A15.5 15.5 0 0 0 880.7022978202324 186.5 L2220 186.5" transform="matrix(1,0,0,1,-7.230269334634887e-12,0)" style="fill:rgb(255, 255, 255);transform:matrix(1, 0, 0, 1, -7.23027e-12, 0);;animation:none"></path>
<path fill="#fff" d="M970.4905081922893 154.5 L988.2961798446885 154.5 A15.5 15.5 0 0 1 988.2961798446885 186.5 L970.4905081922893 186.5 A15.5 15.5 0 0 1 970.4905081922893 154.5" transform="matrix(1,0,0,1,0,0)" opacity="0.714286" style="fill:rgb(255, 255, 255);transform:matrix(1, 0, 0, 1, 0, 0);opacity:0.714286;;animation:none"></path>
<path fill="#fff" d="M2220 185.5 L903.5012984452982 185.5 A15.5 15.5 0 0 1 903.5012984452982 217.5 L2220 217.5" transform="matrix(1,0,0,1,30.447179794311523,0)" style="fill:rgb(255, 255, 255);transform:matrix(1, 0, 0, 1, 30.4472, 0);;animation:none"></path>
<path fill="#000" d="M1965.3547264412516 185.5 L1979.7094528825032 185.5 A15.5 15.5 0 0 1 1979.7094528825032 217.5 L1965.3547264412516 217.5 A15.5 15.5 0 0 1 1965.3547264412516 185.5" transform="matrix(1,0,0,1,-1049.632568359375,0)" opacity="0.571429" style="fill:rgb(0, 0, 0);transform:matrix(1, 0, 0, 1, -1049.63, 0);opacity:0.571429;;animation:none"></path>
<path fill="#fff" d="M2220 216.5 L869.3493564201685 216.5 A15.5 15.5 0 0 0 869.3493564201685 248.5 L2220 248.5" transform="matrix(1,0,0,1,-3.1375045776367188,0)" style="fill:rgb(255, 255, 255);transform:matrix(1, 0, 0, 1, -3.1375, 0);;animation:none"></path>
<path fill="#fff" d="M1015.7959121501907 216.5 L1052.165389139639 216.5 A15.5 15.5 0 0 1 1052.165389139639 248.5 L1015.7959121501907 248.5 A15.5 15.5 0 0 1 1015.7959121501907 216.5" transform="matrix(1,0,0,1,0,0)" opacity="1" style="fill:rgb(255, 255, 255);transform:matrix(1, 0, 0, 1, 0, 0);;animation:none"></path>
<path fill="#fff" d="M2220 247.5 L925.2794112414739 247.5 A15.5 15.5 0 0 1 925.2794112414739 279.5 L2220 279.5" transform="matrix(1,0,0,1,2.3847649097442627,0)" style="fill:rgb(255, 255, 255);transform:matrix(1, 0, 0, 1, 2.38476, 0);;animation:none"></path>
<path fill="#000" d="M1966.6682126783005 247.5 L1982.336425356601 247.5 A15.5 15.5 0 0 1 1982.336425356601 279.5 L1966.6682126783005 279.5 A15.5 15.5 0 0 1 1966.6682126783005 247.5" transform="matrix(1,0,0,1,-1660.6890869140625,0)" opacity="0.285714" style="fill:rgb(0, 0, 0);transform:matrix(1, 0, 0, 1, -1660.69, 0);opacity:0.285714;;animation:none"></path>
<path fill="#fff" d="M2220 278.5 L874.9945106157668 278.5 A15.5 15.5 0 0 0 874.9945106157668 310.5 L2220 310.5" transform="matrix(1,0,0,1,-34.36274337768555,0)" style="fill:rgb(255, 255, 255);transform:matrix(1, 0, 0, 1, -34.3627, 0);;animation:none"></path>
<path fill="#fff" d="M977.3478634742212 278.5 L1008.2721693090015 278.5 A15.5 15.5 0 0 1 1008.2721693090015 310.5 L977.3478634742212 310.5 A15.5 15.5 0 0 1 977.3478634742212 278.5" transform="matrix(1,0,0,1,0,0)" opacity="0.142857" style="fill:rgb(255, 255, 255);transform:matrix(1, 0, 0, 1, 0, 0);opacity:0.142857;;animation:none"></path>
<path fill="#fff" d="M2220 309.5 L934.3810152226503 309.5 A15.5 15.5 0 0 1 934.3810152226503 341.5 L2220 341.5" transform="matrix(1,0,0,1,42.220550537109375,0)" style="fill:rgb(255, 255, 255);transform:matrix(1, 0, 0, 1, 42.2206, 0);;animation:none"></path>
<path fill="#000" d="M1987.7157497759574 309.5 L2024.4314995519148 309.5 A15.5 15.5 0 0 1 2024.4314995519148 341.5 L1987.7157497759574 341.5 A15.5 15.5 0 0 1 1987.7157497759574 309.5" transform="matrix(1,0,0,1,0,0)" opacity="1" style="fill:rgb(0, 0, 0);transform:matrix(1, 0, 0, 1, 0, 0);;animation:none"></path>
<path fill="#fff" d="M2220 340.5 L901.74860777112 340.5 A15.5 15.5 0 0 0 901.74860777112 372.5 L2220 372.5" transform="matrix(1,0,0,1,-36.246212005615234,0)" style="fill:rgb(255, 255, 255);transform:matrix(1, 0, 0, 1, -36.2462, 0);;animation:none"></path>
<path fill="#fff" d="M980.560949946076 340.5 L1018.6643288692233 340.5 A15.5 15.5 0 0 1 1018.6643288692233 372.5 L980.560949946076 372.5 A15.5 15.5 0 0 1 980.560949946076 340.5" transform="matrix(1,0,0,1,0,0)" opacity="1" style="fill:rgb(255, 255, 255);transform:matrix(1, 0, 0, 1, 0, 0);;animation:none"></path>
<path fill="#fff" d="M2220 371.5 L925.2237398891277 371.5 A15.5 15.5 0 0 1 925.2237398891277 403.5 L2220 403.5" transform="matrix(1,0,0,1,2.7492218017578125,0)" style="fill:rgb(255, 255, 255);transform:matrix(1, 0, 0, 1, 2.74922, 0);;animation:none"></path>
<path fill="#000" d="M1983.761079611531 371.5 L2016.5221592230619 371.5 A15.5 15.5 0 0 1 2016.5221592230619 403.5 L1983.761079611531 403.5 A15.5 15.5 0 0 1 1983.761079611531 371.5" transform="matrix(1,0,0,1,-377.1132507324219,0)" opacity="1" style="fill:rgb(0, 0, 0);transform:matrix(1, 0, 0, 1, -377.113, 0);;animation:none"></path>
<path fill="#fff" d="M2220 402.5 L900.6942465796557 402.5 A15.5 15.5 0 0 0 900.6942465796557 434.5 L2220 434.5" transform="matrix(1,0,0,1,-26.30877685546875,0)" style="fill:rgb(255, 255, 255);transform:matrix(1, 0, 0, 1, -26.3088, 0);;animation:none"></path>
<path fill="#fff" d="M995.415133656423 402.5 L1028.0957248072646 402.5 A15.5 15.5 0 0 1 1028.0957248072646 434.5 L995.415133656423 434.5 A15.5 15.5 0 0 1 995.415133656423 402.5" transform="matrix(1,0,0,1,0,0)" opacity="0.571429" style="fill:rgb(255, 255, 255);transform:matrix(1, 0, 0, 1, 0, 0);opacity:0.571429;;animation:none"></path>
<path fill="#fff" d="M2220 433.5 L962.1274075657388 433.5 A15.5 15.5 0 0 1 962.1274075657388 465.5 L2220 465.5" transform="matrix(1,0,0,1,3.044506072998047,0)" style="fill:rgb(255, 255, 255);transform:matrix(1, 0, 0, 1, 3.04451, 0);;animation:none"></path>
<path fill="#000" d="M1963.221619195003 433.5 L1975.4432383900062 433.5 A15.5 15.5 0 0 1 1975.4432383900062 465.5 L1963.221619195003 465.5 A15.5 15.5 0 0 1 1963.221619195003 433.5" transform="matrix(1,0,0,1,-338.7255554199219,0)" opacity="1" style="fill:rgb(0, 0, 0);transform:matrix(1, 0, 0, 1, -338.726, 0);;animation:none"></path>
<path fill="#fff" d="M2220 464.5 L924.4630000361801 464.5 A15.5 15.5 0 0 0 924.4630000361801 496.5 L2220 496.5" transform="matrix(1,0,0,1,-4.420293298057487e-11,0)" style="fill:rgb(255, 255, 255);transform:matrix(1, 0, 0, 1, -4.42029e-11, 0);;animation:none"></path>
<path fill="#fff" d="M985.0555768852751 464.5 L1020.6916003470179 464.5 A15.5 15.5 0 0 1 1020.6916003470179 496.5 L985.0555768852751 496.5 A15.5 15.5 0 0 1 985.0555768852751 464.5" transform="matrix(1,0,0,1,0,0)" opacity="0.714286" style="fill:rgb(255, 255, 255);transform:matrix(1, 0, 0, 1, 0, 0);opacity:0.714286;;animation:none"></path>
<path fill="#fff" d="M2220 495.5 L962.8315660777927 495.5 A15.5 15.5 0 0 1 962.8315660777927 527.5 L2220 527.5" transform="matrix(1,0,0,1,17.322452545166016,0)" style="fill:rgb(255, 255, 255);transform:matrix(1, 0, 0, 1, 17.3225, 0);;animation:none"></path>
<path fill="#000" d="M1974.56131930312 495.5 L1998.12263860624 495.5 A15.5 15.5 0 0 1 1998.12263860624 527.5 L1974.56131930312 527.5 A15.5 15.5 0 0 1 1974.56131930312 495.5" transform="matrix(1,0,0,1,-1269.1710205078125,0)" opacity="0.571429" style="fill:rgb(0, 0, 0);transform:matrix(1, 0, 0, 1, -1269.17, 0);opacity:0.571429;;animation:none"></path>
<path fill="#fff" d="M2220 526.5 L929.9118750764766 526.5 A15.5 15.5 0 0 0 929.9118750764766 558.5 L2220 558.5" transform="matrix(1,0,0,1,-12.97439193725586,0)" style="fill:rgb(255, 255, 255);transform:matrix(1, 0, 0, 1, -12.9744, 0);;animation:none"></path>
<path fill="#fff" d="M996.5956852073887 526.5 L1016.8039852950924 526.5 A15.5 15.5 0 0 1 1016.8039852950924 558.5 L996.5956852073887 558.5 A15.5 15.5 0 0 1 996.5956852073887 526.5" transform="matrix(1,0,0,1,0,0)" opacity="0.857143" style="fill:rgb(255, 255, 255);transform:matrix(1, 0, 0, 1, 0, 0);opacity:0.857143;;animation:none"></path>
<path fill="#fff" d="M2220 557.5 L971.8526383084692 557.5 A15.5 15.5 0 0 1 971.8526383084692 589.5 L2220 589.5" transform="matrix(1,0,0,1,2.7581024169921875,0)" style="fill:rgb(255, 255, 255);transform:matrix(1, 0, 0, 1, 2.7581, 0);;animation:none"></path>
<path fill="#000" d="M1962.5183021224357 557.5 L1974.0366042448713 557.5 A15.5 15.5 0 0 1 1974.0366042448713 589.5 L1962.5183021224357 589.5 A15.5 15.5 0 0 1 1962.5183021224357 557.5" transform="matrix(1,0,0,1,-776.6702270507812,0)" opacity="0.857142" style="fill:rgb(0, 0, 0);transform:matrix(1, 0, 0, 1, -776.67, 0);opacity:0.857142;;animation:none"></path>
<path fill="#fff" d="M2220 588.5 L922.9648029799478 588.5 A15.5 15.5 0 0 0 922.9648029799478 620.5 L2220 620.5" transform="matrix(1,0,0,1,-28.7330322265625,0)" style="fill:rgb(255, 255, 255);transform:matrix(1, 0, 0, 1, -28.733, 0);;animation:none"></path>
<path fill="#fff" d="M1061.4583833070008 588.5 L1094.2924094521122 588.5 A15.5 15.5 0 0 1 1094.2924094521122 620.5 L1061.4583833070008 620.5 A15.5 15.5 0 0 1 1061.4583833070008 588.5" transform="matrix(1,0,0,1,0,0)" opacity="0.285714" style="fill:rgb(255, 255, 255);transform:matrix(1, 0, 0, 1, 0, 0);opacity:0.285714;;animation:none"></path>
<path fill="#fff" d="M2220 619.5 L968.9933530685691 619.5 A15.5 15.5 0 0 1 968.9933530685691 651.5 L2220 651.5" transform="matrix(1,0,0,1,48.781463623046875,0)" style="fill:rgb(255, 255, 255);transform:matrix(1, 0, 0, 1, 48.7815, 0);;animation:none"></path>
<path fill="#000" d="M1990.0949149770458 619.5 L2029.1898299540917 619.5 A15.5 15.5 0 0 1 2029.1898299540917 651.5 L1990.0949149770458 651.5 A15.5 15.5 0 0 1 1990.0949149770458 619.5" transform="matrix(1,0,0,1,0,0)" opacity="1" style="fill:rgb(0, 0, 0);transform:matrix(1, 0, 0, 1, 0, 0);;animation:none"></path>
<path fill="#fff" d="M2220 650.5 L912.84208254481 650.5 A15.5 15.5 0 0 0 912.84208254481 682.5 L2220 682.5" transform="matrix(1,0,0,1,-8.295957565307617,0)" style="fill:rgb(255, 255, 255);transform:matrix(1, 0, 0, 1, -8.29596, 0);;animation:none"></path>
<path fill="#fff" d="M1051.5388611589658 650.5 L1079.941311261214 650.5 A15.5 15.5 0 0 1 1079.941311261214 682.5 L1051.5388611589658 682.5 A15.5 15.5 0 0 1 1051.5388611589658 650.5" transform="matrix(1,0,0,1,0,0)" opacity="1" style="fill:rgb(255, 255, 255);transform:matrix(1, 0, 0, 1, 0, 0);;animation:none"></path>
<path fill="#fff" d="M2220 681.5 L990.3560243381361 681.5 A15.5 15.5 0 0 1 990.3560243381361 713.5 L2220 713.5" transform="matrix(1,0,0,1,1.8168230056762695,0)" style="fill:rgb(255, 255, 255);transform:matrix(1, 0, 0, 1, 1.81682, 0);;animation:none"></path>
<path fill="#000" d="M1977.3327301212157 681.5 L2003.6654602424314 681.5 A15.5 15.5 0 0 1 2003.6654602424314 713.5 L1977.3327301212157 713.5 A15.5 15.5 0 0 1 1977.3327301212157 681.5" transform="matrix(1,0,0,1,-1433.5125732421875,0)" opacity="0.571428" style="fill:rgb(0, 0, 0);transform:matrix(1, 0, 0, 1, -1433.51, 0);opacity:0.571428;;animation:none"></path>
<path fill="#fff" d="M2220 712.5 L968.5308388821909 712.5 A15.5 15.5 0 0 0 968.5308388821909 744.5 L2220 744.5" transform="matrix(1,0,0,1,-15.37588882446289,0)" style="fill:rgb(255, 255, 255);transform:matrix(1, 0, 0, 1, -15.3759, 0);;animation:none"></path>
<path fill="#fff" d="M1037.655817328696 712.5 L1077.3941513384343 712.5 A15.5 15.5 0 0 1 1077.3941513384343 744.5 L1037.655817328696 744.5 A15.5 15.5 0 0 1 1037.655817328696 712.5" transform="matrix(1,0,0,1,0,0)" opacity="1" style="fill:rgb(255, 255, 255);transform:matrix(1, 0, 0, 1, 0, 0);;animation:none"></path>
<path fill="#fff" d="M2220 743.5 L984.7907959817409 743.5 A15.5 15.5 0 0 1 984.7907959817409 775.5 L2220 775.5" transform="matrix(1,0,0,1,25.304988861083984,0)" style="fill:rgb(255, 255, 255);transform:matrix(1, 0, 0, 1, 25.305, 0);;animation:none"></path>
<path fill="#000" d="M1976.3333950059293 743.5 L2001.6667900118587 743.5 A15.5 15.5 0 0 1 2001.6667900118587 775.5 L1976.3333950059293 775.5 A15.5 15.5 0 0 1 1976.3333950059293 743.5" transform="matrix(1,0,0,1,-452.8175964355469,0)" opacity="1" style="fill:rgb(0, 0, 0);transform:matrix(1, 0, 0, 1, -452.818, 0);;animation:none"></path>
<path fill="#fff" d="M2220 774.5 L919.9276460905919 774.5 A15.5 15.5 0 0 0 919.9276460905919 806.5 L2220 806.5" transform="matrix(1,0,0,1,0,0)" style="fill:rgb(255, 255, 255);transform:matrix(1, 0, 0, 1, 0, 0);;animation:none"></path>
<path fill="#fff" d="M1046.2677785037317 774.5 L1058.026395278229 774.5 A15.5 15.5 0 0 1 1058.026395278229 806.5 L1046.2677785037317 806.5 A15.5 15.5 0 0 1 1046.2677785037317 774.5" transform="matrix(1,0,0,1,0,0)" opacity="0.714286" style="fill:rgb(255, 255, 255);transform:matrix(1, 0, 0, 1, 0, 0);opacity:0.714286;;animation:none"></path>
<path fill="#fff" d="M2220 805.5 L971.2425957494064 805.5 A15.5 15.5 0 0 1 971.2425957494064 837.5 L2220 837.5" transform="matrix(1,0,0,1,3.105680227279663,0)" style="fill:rgb(255, 255, 255);transform:matrix(1, 0, 0, 1, 3.10568, 0);;animation:none"></path>
<path fill="#000" d="M1985.9032150673925 805.5 L2020.806430134785 805.5 A15.5 15.5 0 0 1 2020.806430134785 837.5 L1985.9032150673925 837.5 A15.5 15.5 0 0 1 1985.9032150673925 805.5" transform="matrix(1,0,0,1,-1707.5255126953125,0)" opacity="0.285713" style="fill:rgb(0, 0, 0);transform:matrix(1, 0, 0, 1, -1707.53, 0);opacity:0.285713;;animation:none"></path>
<path fill="#fff" d="M2220 836.5 L957.030720523863 836.5 A15.5 15.5 0 0 0 957.030720523863 868.5 L2220 868.5" transform="matrix(1,0,0,1,-42.437923431396484,0)" style="fill:rgb(255, 255, 255);transform:matrix(1, 0, 0, 1, -42.4379, 0);;animation:none"></path>
<path fill="#fff" d="M1016.4786333344214 836.5 L1033.496772513079 836.5 A15.5 15.5 0 0 1 1033.496772513079 868.5 L1016.4786333344214 868.5 A15.5 15.5 0 0 1 1016.4786333344214 836.5" transform="matrix(1,0,0,1,0,0)" opacity="0.857143" style="fill:rgb(255, 255, 255);transform:matrix(1, 0, 0, 1, 0, 0);opacity:0.857143;;animation:none"></path>
<path fill="#fff" d="M2220 867.5 L974.9488018829286 867.5 A15.5 15.5 0 0 1 974.9488018829286 899.5 L2220 899.5" transform="matrix(1,0,0,1,22.83314323425293,0)" style="fill:rgb(255, 255, 255);transform:matrix(1, 0, 0, 1, 22.8331, 0);;animation:none"></path>
<path fill="#000" d="M1983.1061550471957 867.5 L2015.2123100943913 867.5 A15.5 15.5 0 0 1 2015.2123100943913 899.5 L1983.1061550471957 899.5 A15.5 15.5 0 0 1 1983.1061550471957 867.5" transform="matrix(1,0,0,1,-1386.3011474609375,0)" opacity="0.285714" style="fill:rgb(0, 0, 0);transform:matrix(1, 0, 0, 1, -1386.3, 0);opacity:0.285714;;animation:none"></path>
<path fill="#fff" d="M2220 898.5 L927.8193825076045 898.5 A15.5 15.5 0 0 0 927.8193825076045 930.5 L2220 930.5" transform="matrix(1,0,0,1,-14.680784225463867,0)" style="fill:rgb(255, 255, 255);transform:matrix(1, 0, 0, 1, -14.6808, 0);;animation:none"></path>
<path fill="#fff" d="M1019.1134728530718 898.5 L1038.6849141084874 898.5 A15.5 15.5 0 0 1 1038.6849141084874 930.5 L1019.1134728530718 930.5 A15.5 15.5 0 0 1 1019.1134728530718 898.5" transform="matrix(1,0,0,1,0,0)" opacity="0.42857" style="fill:rgb(255, 255, 255);transform:matrix(1, 0, 0, 1, 0, 0);opacity:0.42857;;animation:none"></path></g></mask></defs>


<rect mask="url(#ldbk-photon-kqudcw0ts5c-mask)" fill="url(#ldbk-photon-kqudcw0ts5c-lg)" height="911" width="1920" y="0" x="0" style="fill:url('#ldbk-photon-kqudcw0ts5c-lg');;animation:none"></rect>
<g></g></g><!-- [ldio] generated by https://loading.io --></svg>